<?xml version="1.0" standalone="no"?>
<!DOCTYPE svg PUBLIC "-//W3C//DTD SVG 20010904//EN"
 "http://www.w3.org/TR/2001/REC-SVG-20010904/DTD/svg10.dtd">
<svg version="1.0" xmlns="http://www.w3.org/2000/svg"
 width="240.000000pt" height="240.000000pt" viewBox="0 0 240.000000 240.000000"
 preserveAspectRatio="xMidYMid meet">
<metadata>
Created by potrace 1.15, written by Peter Selinger 2001-2017
</metadata>
<g transform="translate(0.000000,240.000000) scale(0.100000,-0.100000)"
fill="#000000" stroke="none">
<path d="M694 2101 c-44 -27 -70 -96 -55 -144 36 -109 185 -126 237 -26 13 27
19 29 69 29 l55 0 0 -79 c0 -57 -4 -82 -15 -91 -18 -15 -55 -112 -55 -145 l0
-25 285 0 285 0 0 25 c0 33 -37 130 -55 145 -11 9 -15 34 -15 91 l0 79 55 0
c50 0 56 -2 69 -29 52 -100 201 -83 237 26 15 48 -11 117 -55 144 -61 37 -145
18 -180 -42 -17 -29 -18 -29 -112 -29 l-94 0 0 -80 0 -79 -41 14 c-23 8 -65
15 -94 15 -29 0 -71 -7 -94 -15 l-41 -14 0 79 0 80 -94 0 c-94 0 -95 0 -112
29 -35 60 -119 79 -180 42z"/>
<path d="M871 1507 c-18 -23 -41 -57 -49 -74 l-16 -33 -78 0 c-43 0 -78 -4
-78 -10 0 -5 -27 -28 -60 -52 -58 -40 -60 -44 -60 -86 0 -48 -2 -48 69 2 30
21 45 27 48 19 3 -8 24 -13 56 -13 68 0 79 -8 75 -56 l-3 -39 -62 -3 c-35 -2
-63 -7 -63 -12 0 -5 -27 -28 -60 -52 -58 -40 -60 -44 -60 -86 0 -32 3 -41 13
-36 6 5 31 21 53 36 44 29 60 35 49 18 -4 -6 18 -10 59 -10 l66 0 0 -50 0 -50
-65 0 c-51 0 -65 -3 -65 -15 0 -8 -25 -31 -55 -51 -53 -35 -55 -39 -55 -81 0
-33 3 -42 13 -37 6 5 31 21 53 36 44 29 60 35 49 18 -4 -6 22 -10 72 -10 l78
0 34 -65 c19 -37 53 -83 79 -105 54 -48 151 -97 210 -106 l42 -7 0 322 0 321
40 0 40 0 0 -321 0 -322 57 6 c119 12 247 101 304 212 l34 65 78 0 c50 0 76 4
72 10 -11 17 5 11 49 -18 22 -15 47 -31 54 -36 9 -5 12 4 12 37 0 42 -2 46
-55 81 -30 20 -55 43 -55 51 0 12 -14 15 -65 15 l-65 0 0 50 0 50 66 0 c41 0
63 4 59 10 -11 17 5 11 49 -18 22 -15 47 -31 54 -36 9 -5 12 4 12 36 0 42 -2
46 -60 86 -33 24 -60 47 -60 52 0 5 -28 10 -62 12 l-63 3 -3 39 c-4 48 7 56
75 56 32 0 53 5 56 13 3 8 18 2 48 -19 71 -50 69 -50 69 -2 0 42 -2 46 -60 86
-33 24 -60 47 -60 52 0 6 -34 10 -78 10 l-77 0 -23 43 c-12 23 -36 57 -52 75
l-30 32 -307 -1 -308 0 -34 -42z"/>
</g>
</svg>
